<svg width="21" height="21" viewBox="0 0 21 21" fill="none" xmlns="http://www.w3.org/2000/svg">
<g clip-path="url(#clip0_4090_46294)">
<path d="M20.6562 10.2822C20.6562 4.75938 16.1791 0.282227 10.6562 0.282227C5.1334 0.282227 0.65625 4.75938 0.65625 10.2822C0.65625 15.2734 4.31309 19.4105 9.09375 20.1607V13.1729H6.55469V10.2822H9.09375V8.0791C9.09375 5.57285 10.5867 4.18848 12.8709 4.18848C13.9646 4.18848 15.1094 4.38379 15.1094 4.38379V6.84473H13.8484C12.6062 6.84473 12.2188 7.61563 12.2188 8.40723V10.2822H14.9922L14.5488 13.1729H12.2188V20.1607C16.9994 19.4105 20.6562 15.2734 20.6562 10.2822Z" fill="#445563"/>
</g>
<defs>
<clipPath id="clip0_4090_46294">
<rect width="20" height="20" fill="white" transform="translate(0.65625 0.282227)"/>
</clipPath>
</defs>
</svg>
