<svg width="480" height="316" viewBox="0 0 480 316" fill="none" xmlns="http://www.w3.org/2000/svg">
<g opacity="0.7">
<rect x="52.1084" y="51.9955" width="494.143" height="214.012" fill="#C4C4C4" fill-opacity="0.15"/>
<rect x="52.1064" y="51.993" width="52.1068" height="51.993" transform="rotate(-180 52.1064 51.993)" fill="#C4C4C4" fill-opacity="0.15"/>
<path d="M121.646 279.061H116.117V284.578H121.646V279.061Z" fill="#D1D6D9"/>
<path d="M121.646 273.542H116.117V279.06H121.646V273.542Z" fill="#D1D6D9"/>
<path d="M121.646 284.575H116.117V290.092H121.646V284.575Z" fill="#D1D6D9"/>
<path d="M127.177 268.024H119.574L117.501 273.541H127.177V268.024Z" fill="#D1D6D9"/>
<path d="M127.176 279.061H121.646V284.578H127.176V279.061Z" fill="#D1D6D9"/>
<path d="M127.176 284.575H121.646V290.092H127.176V284.575Z" fill="#D1D6D9"/>
<path d="M132.705 262.51H123.72L121.646 268.027H132.705V262.51Z" fill="#D1D6D9"/>
<path d="M132.706 279.061H127.177V284.578H132.706V279.061Z" fill="#D1D6D9"/>
<path d="M143.764 279.061H138.234V284.578H143.764V279.061Z" fill="#D1D6D9"/>
<path d="M138.233 262.51H132.704V268.027H138.233V262.51Z" fill="#D1D6D9"/>
<path d="M138.235 256.991H132.706L127.177 262.509H138.235V256.991Z" fill="#D1D6D9"/>
<path d="M143.764 256.991H138.234V262.509H143.764V256.991Z" fill="#D1D6D9"/>
<path d="M143.764 255.612H138.234V256.991H143.764V255.612Z" fill="#D1D6D9"/>
<path d="M121.646 295.612H116.117V290.095H121.646V295.612Z" fill="#D1D6D9"/>
<path d="M127.176 295.612H121.646V290.095H127.176V295.612Z" fill="#D1D6D9"/>
<path d="M127.177 301.13H119.574L117.501 295.613H127.177V301.13Z" fill="#D1D6D9"/>
<path d="M132.706 301.13H127.177V295.613H132.706V301.13Z" fill="#D1D6D9"/>
<path d="M132.705 306.645H123.72L121.646 301.128H132.705V306.645Z" fill="#D1D6D9"/>
<path d="M138.235 312.163L131.324 311.473L127.177 306.646H138.235V312.163Z" fill="#D1D6D9"/>
<path d="M132.706 295.612H127.177V290.095H132.706V295.612Z" fill="#D1D6D9"/>
<path d="M138.233 290.094H132.704V284.576H138.233V290.094Z" fill="#D1D6D9"/>
<path d="M138.233 279.061H132.704V273.544H138.233V279.061Z" fill="#D1D6D9"/>
<path d="M132.706 273.542H127.177V268.025H132.706V273.542Z" fill="#D1D6D9"/>
<path d="M127.176 279.061H121.646V273.544H127.176V279.061Z" fill="#D1D6D9"/>
<path d="M138.233 306.645H132.704V301.128H138.233V306.645Z" fill="#D1D6D9"/>
<path d="M138.233 301.13H132.704V295.613H138.233V301.13Z" fill="#D1D6D9"/>
<path d="M143.764 295.612H138.234V290.095H143.764V295.612Z" fill="#D1D6D9"/>
<path d="M143.764 312.163H138.234V306.646H143.764V312.163Z" fill="#D1D6D9"/>
<path d="M149.293 312.163H143.764V306.646H149.293V312.163Z" fill="#D1D6D9"/>
<path d="M143.764 306.645H138.234V301.128H143.764V306.645Z" fill="#D1D6D9"/>
<path d="M154.821 306.645H149.292V301.128H154.821V306.645Z" fill="#D1D6D9"/>
<path d="M158.969 310.094L154.822 312.163V306.646H160.352L158.969 310.094Z" fill="#D1D6D9"/>
<path d="M149.293 301.13H143.764V295.613H149.293V301.13Z" fill="#D1D6D9"/>
<path d="M51.1503 240.442H45.6211V245.959H51.1503V240.442Z" fill="#D1D6D9"/>
<path d="M51.1503 179.752H45.6211V240.441H51.1503V179.752Z" fill="#D1D6D9"/>
<path d="M51.1503 245.956H45.6211V251.473H51.1503V245.956Z" fill="#D1D6D9"/>
<path d="M56.6811 174.233H49.0783L47.0049 179.751H56.6811V174.233Z" fill="#D1D6D9"/>
<path d="M56.6796 240.442H51.1504V245.959H56.6796V240.442Z" fill="#D1D6D9"/>
<path d="M56.6796 245.956H51.1504V251.473H56.6796V245.956Z" fill="#D1D6D9"/>
<path d="M62.2089 168.719H53.2239L51.1504 174.236H62.2089V168.719Z" fill="#D1D6D9"/>
<path d="M62.2099 240.442H56.6807V245.959H62.2099V240.442Z" fill="#D1D6D9"/>
<path d="M73.2675 240.442H67.7383V245.959H73.2675V240.442Z" fill="#D1D6D9"/>
<path d="M67.7373 168.719H62.208V174.236H67.7373V168.719Z" fill="#D1D6D9"/>
<path d="M67.7392 163.201H62.2099L56.6807 168.718H67.7392V163.201Z" fill="#D1D6D9"/>
<path d="M73.2675 163.201H67.7383V168.718H73.2675V163.201Z" fill="#D1D6D9"/>
<path d="M73.2675 161.821H67.7383V163.2H73.2675V161.821Z" fill="#D1D6D9"/>
<path d="M51.1503 256.993H45.6211V251.476H51.1503V256.993Z" fill="#D1D6D9"/>
<path d="M56.6796 256.993H51.1504V251.476H56.6796V256.993Z" fill="#D1D6D9"/>
<path d="M56.6811 262.511H49.0783L47.0049 256.994H56.6811V262.511Z" fill="#D1D6D9"/>
<path d="M62.2099 262.511H56.6807V256.994H62.2099V262.511Z" fill="#D1D6D9"/>
<path d="M62.2089 268.026H53.2239L51.1504 262.508H62.2089V268.026Z" fill="#D1D6D9"/>
<path d="M67.7392 273.544L60.8276 272.854L56.6807 268.027H67.7392V273.544Z" fill="#D1D6D9"/>
<path d="M62.2099 256.993H56.6807V251.476H62.2099V256.993Z" fill="#D1D6D9"/>
<path d="M67.7373 251.474H62.208V245.957H67.7373V251.474Z" fill="#D1D6D9"/>
<path d="M67.7373 240.442H62.208V234.924H67.7373V240.442Z" fill="#D1D6D9"/>
<path d="M62.2099 234.923H56.6807V229.406H62.2099V234.923Z" fill="#D1D6D9"/>
<path d="M67.7373 229.405H62.208V223.888H67.7373V229.405Z" fill="#D1D6D9"/>
<path d="M62.2099 223.891H56.6807V218.373H62.2099V223.891Z" fill="#D1D6D9"/>
<path d="M67.7373 218.372H62.208V212.855H67.7373V218.372Z" fill="#D1D6D9"/>
<path d="M62.2099 212.854H56.6807V207.337H62.2099V212.854Z" fill="#D1D6D9"/>
<path d="M67.7373 207.339H62.208V201.822H67.7373V207.339Z" fill="#D1D6D9"/>
<path d="M62.2099 201.821H56.6807V196.304H62.2099V201.821Z" fill="#D1D6D9"/>
<path d="M67.7373 196.303H62.208V190.786H67.7373V196.303Z" fill="#D1D6D9"/>
<path d="M62.2099 190.785H56.6807V185.267H62.2099V190.785Z" fill="#D1D6D9"/>
<path d="M62.2099 179.752H56.6807V174.235H62.2099V179.752Z" fill="#D1D6D9"/>
<path d="M56.6796 240.442H51.1504V179.753H56.6796V240.442Z" fill="#D1D6D9"/>
<path d="M67.7373 268.026H62.208V262.508H67.7373V268.026Z" fill="#D1D6D9"/>
<path d="M67.7373 262.511H62.208V256.994H67.7373V262.511Z" fill="#D1D6D9"/>
<path d="M73.2675 256.993H67.7383V251.476H73.2675V256.993Z" fill="#D1D6D9"/>
<path d="M78.7968 251.474H73.2676V245.957H78.7968V251.474Z" fill="#D1D6D9"/>
<path d="M73.2675 273.544H67.7383V268.027H73.2675V273.544Z" fill="#D1D6D9"/>
<path d="M78.7968 273.544H73.2676V268.027H78.7968V273.544Z" fill="#D1D6D9"/>
<path d="M73.2675 268.026H67.7383V262.508H73.2675V268.026Z" fill="#D1D6D9"/>
<path d="M84.3251 268.026H78.7959V262.508H84.3251V268.026Z" fill="#D1D6D9"/>
<path d="M89.8554 262.511H84.3262V256.994H89.8554V262.511Z" fill="#D1D6D9"/>
<path d="M95.3847 268.026H89.8555V262.508H95.3847V268.026Z" fill="#D1D6D9"/>
<path d="M100.914 262.511H95.3848V256.994H100.914V262.511Z" fill="#D1D6D9"/>
<path d="M88.4731 271.475L84.3262 273.544V268.027H89.8554L88.4731 271.475Z" fill="#D1D6D9"/>
<path d="M78.7968 262.511H73.2676V256.994H78.7968V262.511Z" fill="#D1D6D9"/>
<path d="M84.3251 256.993H78.7959V251.476H84.3251V256.993Z" fill="#D1D6D9"/>
<rect x="192.28" y="74.8499" width="171.143" height="100.627" fill="white" stroke="#455562" stroke-width="3.02834"/>
<rect x="192.28" y="182.644" width="171.143" height="132.142" fill="white" stroke="#455562" stroke-width="3.02834"/>
<rect x="363.685" y="219.885" width="113.086" height="94.9015" fill="white" stroke="#455562" stroke-width="3.02834"/>
<path d="M172.661 284.573C172.661 300.492 159.727 313.403 143.764 313.403C127.802 313.403 114.868 300.492 114.868 284.573C114.868 268.654 127.802 255.743 143.764 255.743C159.727 255.743 172.661 268.654 172.661 284.573Z" stroke="#445563" stroke-width="3.02834"/>
<path d="M105.061 244.575C105.061 261.333 91.4456 274.919 74.6501 274.919C57.8547 274.919 44.2393 261.333 44.2393 244.575" stroke="#445563" stroke-width="3.02834"/>
<path d="M44.2398 244.575L44.2398 190.265C44.2398 174.554 57.8552 161.817 74.6507 161.817C91.4461 161.817 105.062 174.554 105.062 190.265L105.062 244.575" stroke="#445563" stroke-width="3.02834"/>
<mask id="path-89-inside-1_4090_48207" fill="white">
<path d="M360.721 183.885H194.977V188.713H360.721V183.885Z"/>
</mask>
<path d="M360.721 183.885H194.977V188.713H360.721V183.885Z" fill="#71818E"/>
<path d="M194.977 183.885V176.315H187.406V183.885H194.977ZM360.721 183.885H368.292V176.315H360.721V183.885ZM360.721 188.713V196.284H368.292V188.713H360.721ZM194.977 188.713H187.406V196.284H194.977V188.713ZM194.977 191.456H360.721V176.315H194.977V191.456ZM353.151 183.885V188.713H368.292V183.885H353.151ZM360.721 181.142H194.977V196.284H360.721V181.142ZM202.547 188.713V183.885H187.406V188.713H202.547Z" fill="#71818E" mask="url(#path-89-inside-1_4090_48207)"/>
<path d="M360.721 77.8011H194.977V82.6287H360.721V77.8011Z" fill="#71818E"/>
<mask id="path-92-inside-2_4090_48207" fill="white">
<path d="M199.123 82.6288H194.977V312.164H199.123V82.6288Z"/>
</mask>
<path d="M199.123 82.6288H194.977V312.164H199.123V82.6288Z" fill="#71818E"/>
<path d="M194.977 82.6288V75.0579H187.406V82.6288H194.977ZM199.123 82.6288H206.694V75.0579H199.123V82.6288ZM199.123 312.164V319.734H206.694V312.164H199.123ZM194.977 312.164H187.406V319.734H194.977V312.164ZM194.977 90.1996H199.123V75.0579H194.977V90.1996ZM191.553 82.6288V312.164H206.694V82.6288H191.553ZM199.123 304.593H194.977V319.734H199.123V304.593ZM202.547 312.164V82.6288H187.406V312.164H202.547Z" fill="#71818E" mask="url(#path-92-inside-2_4090_48207)"/>
<path d="M360.721 82.6288H355.025V312.164H360.721V82.6288Z" fill="#71818E"/>
<path d="M475.521 221.126H364.935V225.954H475.521V221.126Z" fill="#71818E"/>
<path d="M328.993 221.128H272.318V312.163H328.993V221.128Z" fill="#D1D6D9"/>
<path d="M363.686 215.61V70.4941L420.229 43.3591L476.772 70.4941V215.61H420.229H363.686Z" fill="white" stroke="#455562" stroke-width="3.02834"/>
<rect x="377.51" y="237.815" width="35.6764" height="54.902" fill="#D1D6D9" stroke="#455562" stroke-width="3.02834"/>
<rect x="425.89" y="237.815" width="35.6764" height="54.902" fill="#D1D6D9" stroke="#455562" stroke-width="3.02834"/>
<rect x="377.51" y="266.779" width="35.6764" height="25.9368" fill="#D1D6D9" stroke="#455562" stroke-width="3.02834"/>
<rect x="425.891" y="266.779" width="35.6763" height="25.9368" fill="#D1D6D9" stroke="#455562" stroke-width="3.02834"/>
<path d="M74.6514 276.301V314.921" stroke="#445563" stroke-width="3.02834"/>
<path d="M211.63 176.27V70.1997L248.821 51.645L286.011 70.1997V176.27H211.63Z" fill="white" stroke="#455562" stroke-width="3.02834"/>
<path d="M420.886 41.627L420.228 41.31L419.57 41.6273L357.935 71.3641L354.626 65.7038L420.232 33.6401L483.78 64.3434L480.426 70.3194L420.886 41.627Z" fill="#445563" stroke="#445563" stroke-width="3.02834"/>
<rect x="235.129" y="108.162" width="26.0002" height="35.5919" fill="#D1D6D9" stroke="#455562" stroke-width="3.02834"/>
<path d="M235.13 127.472H261.131V143.754H235.13V127.472Z" fill="#D1D6D9" stroke="#455562" stroke-width="3.02834"/>
<rect x="392.714" y="108.879" width="55.0288" height="54.902" fill="#D1D6D9" stroke="#455562" stroke-width="3.02834"/>
<path d="M475.521 76.0925V69.8857L420.229 42.9895L364.937 69.8857V76.0925L420.229 49.886L475.521 76.0925Z" fill="#71818E"/>
<rect x="392.713" y="136.516" width="55.0288" height="27.3161" fill="#D1D6D9" stroke="#455562" stroke-width="3.02834"/>
<rect x="360.753" y="211.541" width="118.783" height="6.6267" fill="#445563" stroke="#445563" stroke-width="3.02834"/>
<rect x="185.366" y="172.985" width="178.055" height="9.38703" fill="#445563" stroke="#445563" stroke-width="3.02834"/>
<rect x="269.689" y="222.644" width="55.0288" height="92.1429" stroke="#455562" stroke-width="3.02834"/>
<rect x="211.63" y="219.885" width="35.6764" height="54.902" fill="#D1D6D9" stroke="#455562" stroke-width="3.02834"/>
<rect x="211.63" y="247.469" width="35.6764" height="27.3161" fill="#D1D6D9" stroke="#455562" stroke-width="3.02834"/>
<path d="M597.164 314.918H0.00488281" stroke="#445563" stroke-width="3.02834"/>
<path d="M213.377 223.383V221.624H244.249V223.383H213.377Z" fill="#71818E" stroke="#71818E"/>
<path d="M213.377 271.661V222.902H215.142V271.661H213.377Z" fill="#71818E" stroke="#71818E"/>
<path d="M271.438 226.144V224.385H321.389V226.144H271.438Z" fill="#71818E" stroke="#71818E"/>
<path d="M271.438 311.663V224.385H273.203V311.663H271.438Z" fill="#71818E" stroke="#71818E"/>
<path d="M249.496 56.1191L248.82 55.7819L248.144 56.1191L214.394 72.9573V70.1034L248.82 51.6068L283.246 70.1034V72.9573L249.496 56.1191Z" fill="#71818E" stroke="#71818E" stroke-width="3.02834"/>
<path d="M222.489 262.507H216.96V268.024H222.489V262.507Z" fill="white"/>
<path d="M228.019 256.988H222.489V262.506H228.019V256.988Z" fill="white"/>
<path d="M233.547 251.47H228.018V256.987H233.547V251.47Z" fill="white"/>
<path d="M239.076 245.956H233.547V251.473H239.076V245.956Z" fill="white"/>
<path d="M244.607 240.437H239.078V245.955H244.607V240.437Z" fill="white"/>
<path d="M222.489 248.715H216.96V254.232H222.489V248.715Z" fill="white"/>
<path d="M228.019 243.197H222.489V248.714H228.019V243.197Z" fill="white"/>
<path d="M233.547 237.678H228.018V243.196H233.547V237.678Z" fill="white"/>
<path d="M239.076 232.164H233.547V237.681H239.076V232.164Z" fill="white"/>
<path d="M244.607 226.646H239.078V232.163H244.607V226.646Z" fill="white"/>
<path d="M406.406 154.654H400.877V160.172H406.406V154.654Z" fill="white"/>
<path d="M400.874 165.954H395.345V171.472H400.874V165.954Z" fill="white"/>
<path d="M395.347 171.469H389.817V176.986H395.347V171.469Z" fill="white"/>
<path d="M411.934 149.136H406.404V154.653H411.934V149.136Z" fill="white"/>
<path d="M417.464 143.622H411.935V149.139H417.464V143.622Z" fill="white"/>
<path d="M422.993 138.103H417.464V143.62H422.993V138.103Z" fill="white"/>
<path d="M428.522 132.584H422.993V138.102H428.522V132.584Z" fill="white"/>
<path d="M434.051 127.067H428.521V132.584H434.051V127.067Z" fill="white"/>
<path d="M439.579 121.552H434.05V127.069H439.579V121.552Z" fill="white"/>
<path d="M445.11 116.034H439.581V121.551H445.11V116.034Z" fill="white"/>
<path d="M406.405 140.868H400.876V146.385H406.405V140.868Z" fill="white"/>
<path d="M400.876 146.386H395.347V151.903H400.876V146.386Z" fill="white"/>
<path d="M395.347 151.9H389.817V157.418H395.347V151.9Z" fill="white"/>
<path d="M411.934 135.349H406.404V140.866H411.934V135.349Z" fill="white"/>
<path d="M417.465 129.831H411.936V135.348H417.465V129.831Z" fill="white"/>
<path d="M422.992 124.317H417.463V129.834H422.992V124.317Z" fill="white"/>
<path d="M428.521 118.798H422.992V124.315H428.521V118.798Z" fill="white"/>
<path d="M445.11 134.949H392.69V139.469H445.11V134.949Z" fill="#455562"/>
<path d="M247.372 246.454H210.107V250.974H247.372V246.454Z" fill="#455562"/>
<path d="M244.29 218.371L244.29 276.299L248.82 276.299L248.82 218.371L244.29 218.371Z" fill="#455562"/>
<path d="M393.966 140.467H391.201V163.915H393.966V140.467Z" fill="#455562"/>
<path d="M393.967 160.88L393.967 164.271L417.466 164.271L417.466 160.88L393.967 160.88Z" fill="#455562"/>
<path d="M447.874 107.361H416.081V110.12H447.874V107.361Z" fill="#455562"/>
<path d="M395.913 112.384V110.626H444.61V112.384H395.913Z" fill="#71818E" stroke="#71818E"/>
<path d="M394.465 134.453V110.626H396.229V134.453H394.465Z" fill="#71818E" stroke="#71818E"/>
<path d="M394.465 160.38V139.969H396.229V160.38H394.465Z" fill="#71818E" stroke="#71818E"/>
<path d="M246.055 245.954H212.88V250.407H246.055V245.954Z" fill="#455562"/>
<path d="M249.497 50.184L248.827 49.8497L248.154 50.1792L210.022 68.87L206.711 63.2058L248.821 42.1967L290.265 62.8736L286.911 68.8502L249.497 50.184Z" fill="#445563" stroke="#445563" stroke-width="3.02834"/>
<path d="M236.884 111.661V109.902H257.831V111.661H236.884Z" fill="#71818E" stroke="#71818E"/>
<path d="M236.884 125.454V109.902H238.648V125.454H236.884Z" fill="#71818E" stroke="#71818E"/>
<path d="M236.884 140.415V130.599H238.648V140.415H236.884Z" fill="#71818E" stroke="#71818E"/>
<path d="M379.26 241.318V239.56H409.754V241.318H379.26Z" fill="#71818E" stroke="#71818E"/>
<path d="M379.26 264.766V239.56H381.024V264.766H379.26Z" fill="#71818E" stroke="#71818E"/>
<path d="M379.26 289.296V257.492H381.024V289.296H379.26Z" fill="#71818E" stroke="#71818E"/>
<path d="M427.639 241.318V239.56H458.283V241.318H427.639Z" fill="#71818E" stroke="#71818E"/>
<path d="M427.639 264.766V239.56H429.403V264.766H427.639Z" fill="#71818E" stroke="#71818E"/>
<path d="M427.639 289.295V263.009H429.403V289.295H427.639Z" fill="#71818E" stroke="#71818E"/>
<path d="M261.047 125.954H235.245V130.474H261.047V125.954Z" fill="#455562"/>
<path d="M413.252 265.076H376.391V269.596H413.252V265.076Z" fill="#455562"/>
<path d="M462.159 265.076H425.298V269.596H462.159V265.076Z" fill="#455562"/>
<rect x="276.467" y="266.645" width="5.52927" height="5.51718" fill="white"/>
</g>
</svg>
