<svg width="475" height="95" viewBox="0 0 475 95" fill="none" xmlns="http://www.w3.org/2000/svg">
<path d="M129.37 23.0485H160.852V30.5297H137.771V43.3047H159.445V50.7859H137.771V72.457H129.37V23.0485Z" fill="#1D1B1C"/>
<path d="M166.846 22.5525H175.531V30.1719H166.846V22.5525ZM167.057 35.7503H175.247V72.4489H167.057V35.7503Z" fill="#1D1B1C"/>
<path d="M184.42 35.7503H192.61V41.6784C195.367 37.3035 199.457 35.0429 203.833 35.0429H205.248V43.3047H203.833C198.327 43.3047 194.236 46.0533 192.61 49.1596V72.4489H184.42V35.7503Z" fill="#1D1B1C"/>
<path d="M208.07 61.5117H216.113C216.609 64.618 219.504 66.4558 223.384 66.4558C227.263 66.4558 229.947 64.7644 229.947 61.8695C229.947 53.8272 208.981 61.2352 208.981 46.1996C208.981 39.2795 214.56 35.051 223.026 35.051C231.492 35.051 236.575 39.5641 237.282 45.7768H229.239C228.743 43.3779 226.417 41.6865 223.026 41.6865C219.358 41.6865 217.024 43.3779 217.024 45.7768C217.024 53.8923 237.99 46.2728 237.99 61.4467C237.99 69.0011 232.199 73.1645 223.376 73.1645C214.552 73.1645 208.761 68.6514 208.062 61.5198L208.07 61.5117Z" fill="#1D1B1C"/>
<path d="M246.895 61.5849V42.5973H241.178V35.7503H246.895V27.0006H255.085V35.7503H262.217V42.5973H255.085V61.5849C255.085 64.3334 256.638 65.6101 259.46 65.6101H262.217V72.457H258.549C251.417 72.457 246.903 68.9279 246.903 61.5849H246.895Z" fill="#1D1B1C"/>
<path d="M284.509 57.4865H293.471C294.032 63.6992 298.838 65.9517 304.409 65.9517C309.98 65.9517 313.94 63.4796 313.94 58.7551C313.94 46.1915 285.493 56.3562 285.493 36.596C285.493 27.4885 293.324 22.3411 302.994 22.3411C312.664 22.3411 320.357 27.3502 321.065 36.4578H312.168C311.672 31.7983 307.654 29.5377 302.994 29.5377C297.984 29.5377 293.885 31.7251 293.885 36.2464C293.885 48.3871 322.333 38.2224 322.333 58.3403C322.333 68.1472 314.217 73.1645 304.051 73.1645C293.324 73.1645 285.208 68.2936 284.5 57.4946L284.509 57.4865Z" fill="#1D1B1C"/>
<path d="M332.719 61.5849V42.5973H327.001V35.7503H332.719V27.0006H340.908V35.7503H348.041V42.5973H340.908V61.5849C340.908 64.3334 342.462 65.6101 345.284 65.6101H348.032V72.457H344.365C337.232 72.457 332.719 68.9279 332.719 61.5849Z" fill="#1D1B1C"/>
<path d="M354.604 35.7503H362.793V41.6784C365.542 37.3035 369.641 35.0429 374.016 35.0429H375.431V43.3047H374.016C368.51 43.3047 364.42 46.0533 362.793 49.1596V72.4489H354.604V35.7503Z" fill="#1D1B1C"/>
<path d="M378.107 54.1037C378.107 42.1744 385.093 35.051 395.185 35.051C404.359 35.051 412.622 41.6865 411.914 55.6568H386.223C386.719 62.8534 390.387 66.4558 395.682 66.4558C399.349 66.4558 402.602 64.7644 403.513 61.8695H411.63C409.938 69.0661 403.44 73.1645 395.682 73.1645C385.451 73.1645 378.107 65.9679 378.107 54.1118V54.1037ZM403.586 49.4442C402.667 44.3619 399.496 41.6784 395.185 41.6784C391.16 41.6784 387.842 44.2887 386.646 49.4442H403.586Z" fill="#1D1B1C"/>
<path d="M416.859 54.1037C416.859 42.1744 423.845 35.051 433.937 35.051C443.111 35.051 451.374 41.6865 450.666 55.6568H424.975C425.471 62.8534 429.139 66.4558 434.434 66.4558C438.101 66.4558 441.354 64.7644 442.265 61.8695H450.382C448.69 69.0661 442.192 73.1645 434.434 73.1645C424.203 73.1645 416.859 65.9679 416.859 54.1118V54.1037ZM442.338 49.4442C441.419 44.3619 438.248 41.6784 433.937 41.6784C429.912 41.6784 426.594 44.2887 425.398 49.4442H442.338Z" fill="#1D1B1C"/>
<path d="M459.206 61.5849V42.5973H453.488V35.7503H459.206V27.0006H467.395V35.7503H474.527V42.5973H467.395V61.5849C467.395 64.3334 468.948 65.6101 471.77 65.6101H474.527V72.457H470.86C463.727 72.457 459.214 68.9279 459.214 61.5849H459.206Z" fill="#1D1B1C"/>
<path d="M55.6939 94.3425L55.8882 55.5063H52.8092C41.0363 71.0398 23.4293 78.6575 0.182373 81.0115V43.1755C22.3033 40.68 46.5217 26.6974 55.6939 0.626343H92.7862V94.3425H55.6939Z" fill="#1D1B1C"/>
<path d="M55.6939 94.3425L55.8882 55.5063H52.8092C41.0363 71.0398 23.4293 78.6575 0.182373 81.0115V43.1755C22.3033 40.68 46.5217 26.6974 55.6939 0.626343H92.7862V94.3425H55.6939Z" fill="#1D1B1C"/>
</svg>
