<svg width="21" height="21" viewBox="0 0 21 21" fill="none" xmlns="http://www.w3.org/2000/svg">
<g clip-path="url(#clip0_4090_46296)">
<path d="M19.1758 0.282227H2.13281C1.31641 0.282227 0.65625 0.926758 0.65625 1.72363V18.8369C0.65625 19.6338 1.31641 20.2822 2.13281 20.2822H19.1758C19.9922 20.2822 20.6562 19.6338 20.6562 18.8408V1.72363C20.6562 0.926758 19.9922 0.282227 19.1758 0.282227ZM6.58984 17.3252H3.62109V7.77832H6.58984V17.3252ZM5.10547 6.47754C4.15234 6.47754 3.38281 5.70801 3.38281 4.75879C3.38281 3.80957 4.15234 3.04004 5.10547 3.04004C6.05469 3.04004 6.82422 3.80957 6.82422 4.75879C6.82422 5.7041 6.05469 6.47754 5.10547 6.47754ZM17.6992 17.3252H14.7344V12.6846C14.7344 11.5791 14.7148 10.1533 13.1914 10.1533C11.6484 10.1533 11.4141 11.3604 11.4141 12.6064V17.3252H8.45313V7.77832H11.2969V9.08301H11.3359C11.7305 8.33301 12.6992 7.54004 14.1406 7.54004C17.1445 7.54004 17.6992 9.5166 17.6992 12.0869V17.3252Z" fill="#445563"/>
</g>
<defs>
<clipPath id="clip0_4090_46296">
<rect width="20" height="20" fill="white" transform="translate(0.65625 0.282227)"/>
</clipPath>
</defs>
</svg>
