<svg width="394" height="169" viewBox="0 0 394 169" fill="none" xmlns="http://www.w3.org/2000/svg">
<g clip-path="url(#clip0_12643_11548)">
<path d="M237.535 36.3738H44.5347V78.3738H237.535V36.3738Z" fill="white"/>
<path d="M352.535 91.4219H44.5347V133.422H352.535V91.4219Z" fill="white"/>
<path d="M0.535156 0.421875H28.5351V28.4219H0.535156V0.421875Z" fill="#5B6A75"/>
<path d="M364.534 140.422H392.534V168.422H364.534V140.422Z" fill="#2F3D48"/>
<path d="M28.5347 84.4219H84.5347V140.422H28.5347V84.4219Z" fill="#71818E"/>
<path d="M52.4692 126.422V114.156H63.8155V111.358H52.4692V102.35H64.4671V99.5513H49.5176V126.422H52.4692Z" fill="white"/>
<path d="M84.5347 28.4219H140.534V84.4219H84.5347V28.4219Z" fill="#5B6A75"/>
<path d="M104.56 46.3495H111.038V67.6238H104.56V70.422H120.506V67.6238H113.99V46.3495H120.506V43.5513H104.56V46.3495Z" fill="white"/>
<path d="M84.5347 84.4219H140.534V140.422H84.5347V84.4219Z" fill="#5B6A75"/>
<path d="M119.432 126.422H122.729L115.905 99.5513H109.159L102.298 126.422H105.517L107.089 120.289H117.86L119.432 126.422ZM111.651 102.388H113.337L117.17 117.414H107.817L111.651 102.388Z" fill="white"/>
<path d="M140.535 28.4219H196.535V84.4219H140.535V28.4219Z" fill="#4D5C66"/>
<path d="M169.72 58.8839C172.289 59.7272 173.592 61.2221 173.592 63.5604C173.592 66.1286 171.33 68.0452 168.187 68.0452C165.466 68.0452 163.396 66.397 162.284 63.6371L159.524 64.8637C160.636 67.8153 163.396 70.8435 168.302 70.8435C173.4 70.8435 176.62 67.1253 176.62 63.5604C176.62 59.8039 174.474 57.0056 170.18 55.7407L167.306 54.859C164.622 54.0541 163.357 52.5208 163.357 50.2209C163.357 47.576 165.542 45.9277 168.417 45.9277C171.177 45.9277 172.825 47.8443 173.477 49.7225L176.199 48.6109C175.087 45.391 172.365 43.1294 168.226 43.1294C163.856 43.1294 160.329 46.2343 160.329 50.3359C160.329 54.2457 162.859 56.6606 166.232 57.7723L169.72 58.8839Z" fill="white"/>
<path d="M140.535 84.4219H196.535V140.422H140.535V84.4219Z" fill="#52616C"/>
<path d="M175.125 118.756C174.359 121.669 172.48 123.93 169.414 123.93C164.967 123.93 162.207 119.254 162.207 112.967C162.207 106.758 164.546 101.966 169.414 101.966C172.442 101.966 174.397 104.266 175.202 107.256L177.962 106.259C176.927 102.235 174.014 99.1294 169.261 99.1294C162.437 99.1294 159.064 105.378 159.064 112.967C159.064 120.672 162.246 126.844 169.261 126.844C173.899 126.844 176.659 123.854 177.847 119.791L175.125 118.756Z" fill="white"/>
<path d="M252.535 84.4219H308.535V140.422H252.535V84.4219Z" fill="#455562"/>
<path d="M290.346 112.967C290.346 105.378 287.586 99.1294 280.533 99.1294C273.48 99.1294 270.72 105.301 270.72 113.006C270.72 120.596 273.48 126.844 280.533 126.844C287.586 126.844 290.346 120.672 290.346 112.967ZM273.863 113.006C273.863 106.719 275.703 101.89 280.533 101.89C285.363 101.89 287.203 106.719 287.203 112.967C287.203 119.254 285.363 124.084 280.533 124.084C275.665 124.084 273.863 119.216 273.863 113.006Z" fill="white"/>
<path d="M196.535 28.4219H252.535V84.4219H196.535V28.4219Z" fill="#455562"/>
<path d="M216.521 70.422H219.472V63.5606L224.072 57.1975L231.202 70.422H234.422L226.027 54.5909L233.923 43.5513H230.474L219.472 58.8074V43.5513H216.521V70.422Z" fill="white"/>
<path d="M196.535 84.4219H252.535V140.422H196.535V84.4219Z" fill="#4D5C66"/>
<path d="M214.604 99.5513V102.35H223.037V126.422H225.989V102.35H234.46V99.5513H214.604Z" fill="white"/>
<path d="M308.534 84.4219H364.534V140.422H308.534V84.4219Z" fill="#2F3D48"/>
<path d="M342.474 126.422H345.77L339.675 115.957C343.049 114.807 345.348 112.163 345.348 108.061C345.348 102.924 341.86 99.5513 336.302 99.5513H328.482V126.422H331.434V116.532H336.685L342.474 126.422ZM336.685 102.35C339.829 102.35 342.397 104.343 342.397 108.061C342.397 111.971 339.752 113.772 336.685 113.772H331.434V102.35H336.685Z" fill="white"/>
<path d="M28.5347 28.4219H84.5347V84.4219H28.5347V28.4219Z" fill="#5B6A75"/>
<path d="M62.4741 70.422H65.7707L59.6759 59.9574C63.0491 58.8074 65.349 56.1625 65.349 52.061C65.349 46.9245 61.8608 43.5513 56.3026 43.5513H48.4829V70.422H51.4345V60.5324H56.686L62.4741 70.422ZM56.686 46.3495C59.8292 46.3495 62.3974 48.3428 62.3974 52.061C62.3974 55.9708 59.7525 57.7724 56.686 57.7724H51.4345V46.3495H56.686Z" fill="white"/>
<path d="M376.85 129.058V124.824H378.996C379.168 124.824 379.355 124.873 379.558 124.973C379.761 125.068 379.933 125.218 380.074 125.42C380.22 125.619 380.292 125.872 380.292 126.178C380.292 126.487 380.218 126.751 380.068 126.969C379.919 127.184 379.738 127.346 379.523 127.457C379.313 127.568 379.114 127.623 378.927 127.623H377.378V126.935H378.64C378.766 126.935 378.902 126.872 379.047 126.746C379.196 126.619 379.271 126.43 379.271 126.178C379.271 125.918 379.196 125.742 379.047 125.65C378.902 125.558 378.774 125.512 378.663 125.512H377.779V129.058H376.85ZM379.409 127.061L380.464 129.058H379.443L378.41 127.061H379.409ZM378.456 131.582C377.821 131.582 377.226 131.464 376.672 131.227C376.117 130.989 375.63 130.661 375.209 130.24C374.788 129.819 374.459 129.331 374.222 128.777C373.985 128.222 373.866 127.627 373.866 126.992C373.866 126.357 373.985 125.763 374.222 125.208C374.459 124.653 374.788 124.166 375.209 123.745C375.63 123.324 376.117 122.995 376.672 122.758C377.226 122.521 377.821 122.402 378.456 122.402C379.091 122.402 379.686 122.521 380.241 122.758C380.795 122.995 381.283 123.324 381.704 123.745C382.124 124.166 382.453 124.653 382.69 125.208C382.928 125.763 383.046 126.357 383.046 126.992C383.046 127.627 382.928 128.222 382.69 128.777C382.453 129.331 382.124 129.819 381.704 130.24C381.283 130.661 380.795 130.989 380.241 131.227C379.686 131.464 379.091 131.582 378.456 131.582ZM378.456 130.481C379.099 130.481 379.684 130.324 380.212 130.01C380.74 129.697 381.16 129.276 381.474 128.748C381.788 128.22 381.945 127.635 381.945 126.992C381.945 126.35 381.788 125.765 381.474 125.237C381.16 124.709 380.74 124.288 380.212 123.974C379.684 123.661 379.099 123.504 378.456 123.504C377.814 123.504 377.228 123.661 376.701 123.974C376.173 124.288 375.752 124.709 375.438 125.237C375.125 125.765 374.968 126.35 374.968 126.992C374.968 127.635 375.125 128.22 375.438 128.748C375.752 129.276 376.173 129.697 376.701 130.01C377.228 130.324 377.814 130.481 378.456 130.481Z" fill="black"/>
</g>
<defs>
<clipPath id="clip0_12643_11548">
<rect width="393" height="168" fill="white" transform="translate(0.229492 0.421875)"/>
</clipPath>
</defs>
</svg>
