<svg width="21" height="21" viewBox="0 0 21 21" fill="none" xmlns="http://www.w3.org/2000/svg">
<g clip-path="url(#clip0_4090_46297)">
<path d="M20.457 6.28223C20.457 6.28223 20.2617 4.90332 19.6602 4.29785C18.8984 3.50098 18.0469 3.49707 17.6562 3.4502C14.8594 3.24707 10.6602 3.24707 10.6602 3.24707H10.6523C10.6523 3.24707 6.45312 3.24707 3.65625 3.4502C3.26562 3.49707 2.41406 3.50098 1.65234 4.29785C1.05078 4.90332 0.859375 6.28223 0.859375 6.28223C0.859375 6.28223 0.65625 7.90332 0.65625 9.52051V11.0361C0.65625 12.6533 0.855469 14.2744 0.855469 14.2744C0.855469 14.2744 1.05078 15.6533 1.64844 16.2588C2.41016 17.0557 3.41016 17.0283 3.85547 17.1143C5.45703 17.2666 10.6562 17.3135 10.6562 17.3135C10.6562 17.3135 14.8594 17.3057 17.6562 17.1064C18.0469 17.0596 18.8984 17.0557 19.6602 16.2588C20.2617 15.6533 20.457 14.2744 20.457 14.2744C20.457 14.2744 20.6562 12.6572 20.6562 11.0361V9.52051C20.6562 7.90332 20.457 6.28223 20.457 6.28223ZM8.58984 12.876V7.25488L13.9922 10.0752L8.58984 12.876Z" fill="#445563"/>
</g>
<defs>
<clipPath id="clip0_4090_46297">
<rect width="20" height="20" fill="white" transform="translate(0.65625 0.282227)"/>
</clipPath>
</defs>
</svg>
